<svg xmlns="http://www.w3.org/2000/svg" viewBox="0 0 1440 810" fill="none">
  <defs>
    <linearGradient id="bg" x1="0" y1="0" x2="1" y2="1"><stop stop-color="#F4F6F9"/><stop offset="1" stop-color="#E9EDF2"/></linearGradient>
    <linearGradient id="brand" x1="0" y1="0" x2="1" y2="1"><stop stop-color="#273951"/><stop offset="1" stop-color="#3D647A"/></linearGradient>
    <filter id="shadow" x="-20%" y="-20%" width="140%" height="150%"><feDropShadow dx="0" dy="4" stdDeviation="10" flood-color="#1D2B3E" flood-opacity=".1"/></filter>
  </defs>
  <rect width="1440" height="810" rx="28" fill="#D8E0E9"/><rect x="16" y="16" width="1408" height="778" rx="22" fill="url(#bg)"/>
  <rect x="16" y="16" width="1408" height="43" rx="22" fill="#E5E9EF"/><circle cx="43" cy="37" r="6" fill="#F17B75"/><circle cx="63" cy="37" r="6" fill="#E9B75E"/><circle cx="83" cy="37" r="6" fill="#58B88C"/><rect x="535" y="26" width="370" height="21" rx="10" fill="#F7F8FA"/><text x="555" y="41" fill="#778496" font-family="Arial,sans-serif" font-size="12">nojorghor.example / security</text><rect x="1164" y="25" width="236" height="25" rx="12" fill="#152234"/><text x="1183" y="42" fill="#D8E7F2" font-family="Arial,sans-serif" font-size="12" font-weight="700" letter-spacing="1.2">PROPOSED UI MOCKUP</text>
  <rect x="16" y="59" width="240" height="735" fill="#172435"/><circle cx="54" cy="100" r="18" fill="#2F5266"/><path d="M54 87v13l9 7" stroke="#BCE8E6" stroke-width="2.5" stroke-linecap="round"/><text x="82" y="107" fill="#EFF5FA" font-family="Arial,sans-serif" font-size="17" font-weight="700">NOJORGHOR</text>
  <rect x="33" y="139" width="207" height="37" rx="10" fill="#263A50"/><rect x="48" y="151" width="13" height="13" rx="3" fill="#51C7BD"/><text x="74" y="162" fill="#E3F7F4" font-family="Arial,sans-serif" font-size="13" font-weight="700">Overview</text>
  <g fill="#B2BFCD" font-family="Arial,sans-serif" font-size="13"><text x="74" y="207">Endpoints</text><text x="74" y="251">Detection alerts</text><text x="74" y="295">Investigation</text><text x="74" y="339">Reports</text><text x="74" y="383">Audit log</text><text x="74" y="427">Settings</text></g>
  <g fill="#8293A5"><circle cx="54" cy="202" r="7"/><path d="M48 245h12v12H48z"/><circle cx="54" cy="290" r="7"/><path d="M48 333h12v12H48z"/><circle cx="54" cy="378" r="7"/><circle cx="54" cy="422" r="7"/></g>
  <rect x="33" y="685" width="207" height="83" rx="13" fill="#203246"/><circle cx="57" cy="712" r="11" fill="#2B5360"/><path d="m52 712 4 4 7-8" stroke="#73D9B5" stroke-width="2" stroke-linecap="round"/><text x="79" y="710" fill="#E0E9F1" font-family="Arial,sans-serif" font-size="11" font-weight="700">Lab monitoring</text><text x="48" y="741" fill="#94A8B8" font-family="Arial,sans-serif" font-size="10">Sample environment</text>
  <rect x="256" y="59" width="1168" height="66" fill="#fff"/><text x="288" y="100" fill="#25394F" font-family="Arial,sans-serif" font-size="20" font-weight="700">Security monitoring overview</text><rect x="1180" y="77" width="191" height="31" rx="10" fill="#F9F2E8" stroke="#F0E3CC"/><circle cx="1198" cy="92" r="5" fill="#DBA447"/><text x="1211" y="97" fill="#94713A" font-family="Arial,sans-serif" font-size="10" font-weight="700">ILLUSTRATIVE DEMO DATA</text>
  <text x="288" y="161" fill="#2C4055" font-family="Arial,sans-serif" font-size="18" font-weight="700">Endpoint activity</text><text x="288" y="182" fill="#8693A2" font-family="Arial,sans-serif" font-size="12">Collected events are reviewed with rules and anomaly signals.</text>
  <g filter="url(#shadow)"><rect x="288" y="201" width="253" height="98" rx="14" fill="#fff"/><rect x="558" y="201" width="253" height="98" rx="14" fill="#fff"/><rect x="828" y="201" width="253" height="98" rx="14" fill="#fff"/><rect x="1098" y="201" width="287" height="98" rx="14" fill="#fff"/></g>
  <text x="308" y="228" fill="#8190A1" font-family="Arial,sans-serif" font-size="10">LAB ENDPOINTS</text><text x="308" y="266" fill="#2B3E52" font-family="Arial,sans-serif" font-size="26" font-weight="700">04</text><text x="369" y="264" fill="#8190A1" font-family="Arial,sans-serif" font-size="11">Windows &amp; Linux agents</text>
  <text x="578" y="228" fill="#8190A1" font-family="Arial,sans-serif" font-size="10">EVENTS IN SAMPLE VIEW</text><text x="578" y="266" fill="#2B3E52" font-family="Arial,sans-serif" font-size="26" font-weight="700">128</text><text x="642" y="264" fill="#8190A1" font-family="Arial,sans-serif" font-size="11">Illustrative only</text>
  <text x="848" y="228" fill="#8190A1" font-family="Arial,sans-serif" font-size="10">NEEDS REVIEW</text><text x="848" y="266" fill="#A85F35" font-family="Arial,sans-serif" font-size="26" font-weight="700">03</text><text x="908" y="264" fill="#8190A1" font-family="Arial,sans-serif" font-size="11">Demo alerts</text>
  <text x="1118" y="228" fill="#8190A1" font-family="Arial,sans-serif" font-size="10">DETECTION MODES</text><rect x="1118" y="247" width="101" height="27" rx="13" fill="#EAF4EF"/><text x="1131" y="265" fill="#34835F" font-family="Arial,sans-serif" font-size="10" font-weight="700">Rules enabled</text><rect x="1226" y="247" width="136" height="27" rx="13" fill="#EDF2FA"/><text x="1239" y="265" fill="#5775A2" font-family="Arial,sans-serif" font-size="10" font-weight="700">Anomaly review</text>
  <g filter="url(#shadow)"><rect x="288" y="320" width="687" height="276" rx="15" fill="#fff"/><rect x="992" y="320" width="393" height="276" rx="15" fill="#fff"/></g>
  <text x="312" y="354" fill="#33485D" font-family="Arial,sans-serif" font-size="14" font-weight="700">Sample event volume</text><text x="312" y="374" fill="#95A0AD" font-family="Arial,sans-serif" font-size="10">Synthetic interface example · no measured detection results</text>
  <path d="M332 535H937M332 488H937M332 441H937M332 394H937" stroke="#EEF1F4" stroke-width="1"/>
  <path d="M351 510 411 490 471 500 531 445 591 464 651 422 711 449 771 406 831 429 891 390" stroke="#4F8EAA" stroke-width="3" stroke-linecap="round" stroke-linejoin="round"/>
  <path d="M351 526 411 518 471 511 531 501 591 493 651 488 711 472 771 468 831 454 891 448" stroke="#D79A52" stroke-width="2.5" stroke-dasharray="6 6" stroke-linecap="round"/>
  <g fill="#718195" font-family="Arial,sans-serif" font-size="9"><text x="345" y="555">09:00</text><text x="466" y="555">10:00</text><text x="587" y="555">11:00</text><text x="708" y="555">12:00</text><text x="829" y="555">13:00</text><text x="900" y="555">14:00</text></g>
  <circle cx="324" cy="579" r="4" fill="#4F8EAA"/><text x="336" y="583" fill="#758497" font-family="Arial,sans-serif" font-size="9">Event volume</text><circle cx="433" cy="579" r="4" fill="#D79A52"/><text x="445" y="583" fill="#758497" font-family="Arial,sans-serif" font-size="9">Anomaly review window</text>
  <text x="1017" y="354" fill="#33485D" font-family="Arial,sans-serif" font-size="14" font-weight="700">Detection layers</text>
  <rect x="1016" y="376" width="344" height="76" rx="12" fill="#F5F8FA"/><circle cx="1040" cy="402" r="10" fill="#E5F2EB"/><path d="m1036 402 3 3 6-7" stroke="#3B946B" stroke-width="1.8" stroke-linecap="round"/><text x="1060" y="402" fill="#3B4E61" font-family="Arial,sans-serif" font-size="11" font-weight="700">Rule matching</text><text x="1060" y="424" fill="#8795A3" font-family="Arial,sans-serif" font-size="10">Known event patterns</text><rect x="1277" y="392" width="62" height="23" rx="11" fill="#EAF5EE"/><text x="1288" y="408" fill="#33805B" font-family="Arial,sans-serif" font-size="9">Enabled</text>
  <rect x="1016" y="462" width="344" height="76" rx="12" fill="#F5F8FA"/><circle cx="1040" cy="488" r="10" fill="#ECF0FA"/><path d="M1035 488h10m-5-5v10" stroke="#6781BC" stroke-width="1.8" stroke-linecap="round"/><text x="1060" y="488" fill="#3B4E61" font-family="Arial,sans-serif" font-size="11" font-weight="700">Anomaly scoring</text><text x="1060" y="510" fill="#8795A3" font-family="Arial,sans-serif" font-size="10">Isolation Forest · review signal</text><rect x="1277" y="478" width="62" height="23" rx="11" fill="#EDF1F9"/><text x="1288" y="494" fill="#5A74A3" font-family="Arial,sans-serif" font-size="9">Enabled</text>
  <text x="1017" y="572" fill="#8996A4" font-family="Arial,sans-serif" font-size="9">Performance and accuracy are not represented.</text>
  <text x="288" y="628" fill="#2D4357" font-family="Arial,sans-serif" font-size="15" font-weight="700">Alerts to investigate</text>
  <g filter="url(#shadow)"><rect x="288" y="644" width="1097" height="98" rx="14" fill="#fff"/></g>
  <rect x="310" y="661" width="62" height="22" rx="11" fill="#FCECEB"/><circle cx="324" cy="672" r="4" fill="#D45C58"/><text x="334" y="676" fill="#A6504D" font-family="Arial,sans-serif" font-size="9" font-weight="700">REVIEW</text><text x="390" y="676" fill="#364B5F" font-family="Arial,sans-serif" font-size="11" font-weight="700">Repeated failed sign-ins</text><text x="390" y="699" fill="#8491A0" font-family="Arial,sans-serif" font-size="10">Example endpoint · unusual login pattern · analyst confirmation required</text><rect x="1122" y="662" width="237" height="42" rx="10" fill="#EFF3F7"/><text x="1151" y="688" fill="#556A7F" font-family="Arial,sans-serif" font-size="10" font-weight="700">Review event context →</text><text x="310" y="726" fill="#8795A2" font-family="Arial,sans-serif" font-size="9">Response actions are gated for operator approval; this mockup does not block any address.</text>
</svg>
